<svg xmlns="http://www.w3.org/2000/svg" width="41" height="40" viewBox="0 0 41 40" fill="none"><path d="M9.09601 8.30926L8.26184 25.5444L15.8863 10.5414C16.5394 9.25634 16.0158 7.6854 14.7223 7.04911L12.8208 6.11368C11.1509 5.29218 9.18598 6.45039 9.09601 8.30926Z" fill="white" fill-opacity="0.4"></path><path d="M23.2213 8.89363L10.1061 28.1653L29.8919 16.4509C31.6797 15.3924 32.1324 13.0048 30.856 11.3654L28.793 8.7154C27.356 6.86964 24.5373 6.95981 23.2213 8.89363Z" fill="white" fill-opacity="0.4"></path><path d="M29.1538 21.5362L13.5897 29.375L31.0519 26.8695C32.1697 26.7091 32.8341 25.5354 32.3963 24.4944L31.5186 22.4076C31.1315 21.4871 30.0457 21.087 29.1538 21.5362Z" fill="white" fill-opacity="0.4"></path></svg>