<svg xmlns="http://www.w3.org/2000/svg" width="29" height="28" viewBox="0 0 29 28" fill="none"><path fill-rule="evenodd" clip-rule="evenodd" d="M9.75225 2.96804C9.02535 3.23933 7.89094 3.83529 7.07006 4.37705C6.08793 5.02524 4.73856 6.26147 4.06657 7.12872C2.85956 8.68639 2.22812 10.2707 1.86529 12.6522C1.62127 14.2536 1.60392 14.6602 1.58141 19.3083C1.55747 24.2516 1.53564 23.9413 1.9346 24.333C2.31956 24.711 2.09181 24.694 6.78076 24.694C11.3095 24.694 11.151 24.7031 11.5251 24.4229C11.6207 24.3513 11.7586 24.193 11.8316 24.0711L11.9643 23.8494L11.9777 19.6377L11.991 15.4259L11.8848 15.1835C11.7601 14.8989 11.4178 14.5817 11.1593 14.5112C11.0533 14.4823 10.1701 14.4625 8.97801 14.4624L6.97484 14.4621V14.1586C6.97484 13.4676 7.1755 12.2949 7.42669 11.518C7.76062 10.485 8.27014 9.6522 9.0082 8.93292C9.61033 8.34608 10.3076 7.88005 11.2877 7.40918C12.0045 7.06492 12.112 6.97949 12.3089 6.59767C12.361 6.49656 12.3958 6.31634 12.3975 6.1382C12.4 5.88033 12.3672 5.7756 12.1251 5.26685C11.2038 3.33093 11.1285 3.2081 10.7436 3.01534C10.4614 2.87397 10.0561 2.85467 9.75225 2.96804ZM24.2888 2.93266C24.0163 2.98203 22.7353 3.5975 22.0417 4.01228C19.9372 5.27066 18.2945 6.95656 17.3332 8.8445C16.6303 10.225 16.2822 11.6195 16.037 14.0369C15.9718 14.6793 15.9531 15.6398 15.9355 19.2596C15.9112 24.2572 15.8891 23.9408 16.2886 24.333C16.6736 24.711 16.4461 24.694 21.1322 24.694C25.6998 24.694 25.5397 24.7038 25.9112 24.4032C26.0086 24.3243 26.1456 24.1469 26.2156 24.0089L26.343 23.758L26.3419 19.5807C26.3408 15.4824 26.3389 15.3991 26.2407 15.186C26.1256 14.9364 25.95 14.7419 25.7039 14.5914C25.5358 14.4886 25.483 14.4856 23.4188 14.4621L21.3057 14.4379L21.3207 14.0518C21.3595 13.0546 21.6046 11.8677 21.9452 11.0293C22.2954 10.1672 22.7147 9.53834 23.3511 8.92115C23.9303 8.35945 24.5216 7.9592 25.4498 7.50069C26.3396 7.06115 26.5883 6.85859 26.689 6.4914C26.8082 6.05678 26.7455 5.83781 26.1588 4.64038C25.8313 3.97212 25.5408 3.44595 25.4287 3.31834C25.144 2.99415 24.7273 2.85317 24.2888 2.93266Z" fill="#F7B551"></path></svg>