<svg xmlns="http://www.w3.org/2000/svg" width="41" height="40" viewBox="0 0 41 40" fill="none"><path d="M31.9041 8.30926L32.7383 25.5444L25.1138 10.5414C24.4608 9.25634 24.9844 7.6854 26.2778 7.04911L28.1793 6.11368C29.8493 5.29218 31.8141 6.45039 31.9041 8.30926Z" fill="white" fill-opacity="0.4"></path><path d="M17.7788 8.89363L30.894 28.1653L11.1082 16.4509C9.3204 15.3924 8.86775 13.0048 10.1441 11.3654L12.2071 8.7154C13.6441 6.86964 16.4628 6.95981 17.7788 8.89363Z" fill="white" fill-opacity="0.4"></path><path d="M11.8463 21.5362L27.4104 29.375L9.94825 26.8695C8.83045 26.7091 8.16603 25.5354 8.60382 24.4944L9.48149 22.4076C9.86864 21.4871 10.9544 21.087 11.8463 21.5362Z" fill="white" fill-opacity="0.4"></path></svg>